<?xml version="1.0" standalone="no"?>
<!DOCTYPE svg PUBLIC "-//W3C//DTD SVG 20010904//EN"
 "http://www.w3.org/TR/2001/REC-SVG-20010904/DTD/svg10.dtd">
<svg version="1.0" xmlns="http://www.w3.org/2000/svg"
 width="362.000000pt" height="362.000000pt" viewBox="0 0 362.000000 362.000000"
 preserveAspectRatio="xMidYMid meet">
<metadata>
Created by potrace 1.11, written by Peter Selinger 2001-2013
</metadata>
<g transform="translate(0.000000,362.000000) scale(0.100000,-0.100000)"
fill="#000000" stroke="none">
<path d="M1260 3610 l-35 -5 25 -17 c33 -24 116 -51 137 -45 14 4 13 5 -4 6
-12 0 -48 11 -80 23 l-58 22 70 12 c56 10 61 12 25 11 -25 -1 -61 -4 -80 -7z"/>
<path d="M1459 3604 c86 -18 155 -49 148 -68 -3 -8 13 -22 44 -36 60 -29 64
-47 8 -42 -52 5 -169 -7 -169 -18 0 -4 17 -4 38 1 54 13 84 9 35 -4 -23 -7
-45 -15 -49 -19 -4 -4 8 -3 25 2 18 5 63 12 100 16 l68 6 12 -30 c7 -16 24
-35 37 -41 29 -13 70 -5 78 15 10 25 50 15 126 -33 41 -25 140 -75 220 -110
83 -36 152 -72 162 -85 29 -39 31 -12 2 34 -38 60 -100 117 -159 145 -46 21
-47 23 -15 17 62 -10 179 -75 231 -128 27 -27 49 -53 49 -57 0 -11 111 -95
228 -175 77 -52 105 -77 114 -101 6 -18 15 -30 20 -27 4 3 4 14 -2 24 -5 10
-10 26 -10 35 0 47 -75 143 -147 188 -21 13 -83 47 -138 76 -55 29 -113 64
-130 77 l-30 25 65 -24 c153 -57 310 -151 401 -241 45 -44 60 -68 88 -144 26
-67 57 -122 119 -209 99 -139 117 -168 128 -214 11 -48 11 -51 2 -76 -10 -29
7 -30 23 -1 16 31 6 142 -20 210 -31 81 -159 265 -181 260 -6 -1 -9 2 -5 8 4
6 -6 28 -21 48 -24 33 -21 31 25 -13 29 -27 76 -79 106 -115 57 -70 119 -187
103 -192 -6 -2 1 -27 16 -56 32 -63 46 -152 46 -301 0 -86 5 -131 21 -183 11
-39 22 -68 25 -66 2 3 -5 40 -15 84 -14 55 -21 126 -23 232 -2 83 -3 152 -2
152 3 0 52 -216 58 -255 3 -16 3 4 0 45 -2 41 -11 93 -19 115 -8 22 -14 47
-14 55 -1 25 40 -72 51 -123 15 -71 16 -80 17 -100 1 -12 5 -16 14 -11 9 6 9
5 0 -7 -8 -10 -9 -27 -4 -49 4 -19 7 -70 7 -112 -1 -48 3 -77 9 -75 15 5 15
235 -1 280 -7 20 -13 40 -13 42 3 44 -76 280 -90 271 -4 -3 -7 3 -7 12 -1 9
-5 26 -9 37 l-8 20 19 -20 c11 -11 29 -33 42 -49 18 -24 22 -25 22 -10 1 29
62 -44 102 -121 18 -35 34 -62 36 -60 2 1 -12 34 -32 71 -34 69 -121 167 -187
213 -19 13 -71 74 -117 135 -85 115 -145 186 -157 186 -3 0 -3 -6 1 -12 7 -13
2 -9 -65 48 -82 69 -99 91 -23 30 45 -37 82 -63 82 -58 0 5 -29 34 -64 63 -36
29 -63 55 -62 56 2 2 23 -4 47 -13 24 -8 58 -17 74 -19 l30 -3 -34 14 c-49 22
-31 28 26 9 61 -21 160 -85 215 -139 63 -63 131 -146 118 -146 -48 0 -149 70
-300 210 -62 57 -39 28 30 -39 84 -81 150 -130 229 -170 62 -32 110 -24 64 11
-10 7 -46 45 -81 85 -70 80 -174 161 -240 186 -50 20 -107 33 -182 42 -43 6
-73 19 -138 61 -96 63 -228 131 -340 175 -86 34 -102 44 -57 35 17 -3 49 -8
72 -11 40 -6 62 -13 158 -54 90 -39 124 -51 205 -75 126 -38 176 -45 229 -33
43 9 32 20 -33 36 -49 12 -89 30 -156 68 -63 36 -164 71 -225 79 -84 10 -288
12 -300 3 -6 -4 -51 2 -100 15 -50 12 -93 23 -98 24 -4 0 -31 5 -60 11 -28 6
-70 13 -91 16 -53 7 -54 11 -10 25 36 12 134 10 239 -6 133 -19 256 -7 292 29
12 12 7 13 -37 9 -28 -2 -71 1 -95 7 -23 6 -60 13 -82 16 -21 3 -49 8 -63 11
-14 3 -22 2 -18 -1 9 -9 174 -44 211 -45 15 0 27 -5 27 -11 0 -8 -38 -10 -132
-6 -73 3 -142 8 -153 11 -11 2 -29 5 -40 6 l-20 1 20 9 c19 8 19 9 -2 9 -13 1
-23 -3 -23 -9 0 -5 -5 -10 -11 -10 -5 0 -7 4 -4 10 4 6 -7 8 -27 5 -31 -5 -32
-5 -8 6 14 6 54 14 90 19 l65 7 -51 2 c-55 1 -156 -27 -200 -56 -20 -13 -29
-14 -32 -5 -14 43 -91 59 -114 23 -11 -18 -15 -17 -74 25 -81 58 -136 81 -209
88 l-60 6 74 -16z m346 -106 c24 -11 28 -20 28 -63 -1 -32 -2 -34 -23 -45 -46
-25 -90 16 -81 75 6 43 30 54 76 33z m132 -4 c-3 -3 -12 -4 -19 -1 -8 3 -5 6
6 6 11 1 17 -2 13 -5z m-9 -71 c-16 -2 -40 -2 -55 0 -16 2 -3 4 27 4 30 0 43
-2 28 -4z m59 -9 c-3 -3 -12 -4 -19 -1 -8 3 -5 6 6 6 11 1 17 -2 13 -5z m60
-10 c-3 -3 -12 -4 -19 -1 -8 3 -5 6 6 6 11 1 17 -2 13 -5z m46 -45 c101 -34
144 -59 192 -110 26 -28 44 -53 41 -56 -3 -3 -11 -1 -18 4 -7 6 -67 33 -134
60 -66 28 -138 62 -160 76 -40 28 -35 35 12 17 15 -6 29 -8 32 -6 2 3 -23 13
-56 22 -34 9 -59 20 -57 24 6 9 66 -3 148 -31z m62 20 l20 -8 -20 0 c-11 0
-38 7 -60 14 l-40 14 40 -6 c22 -3 49 -9 60 -14z m125 -33 c76 -24 170 -63
170 -71 0 -3 -37 9 -82 27 -46 17 -108 39 -138 49 -30 10 -48 18 -40 18 8 1
49 -10 90 -23z m380 -11 c83 -32 259 -118 259 -126 1 -11 -82 3 -168 28 -85
24 -285 103 -278 109 2 2 34 -5 71 -15 37 -10 63 -14 57 -8 -6 6 -41 19 -78
29 l-68 18 70 -4 c42 -3 96 -15 135 -31z m-82 -194 c13 -7 22 -15 19 -17 -5
-6 -127 64 -127 72 0 3 19 -5 43 -19 23 -13 53 -30 65 -36z m22 -26 c30 9 195
-144 175 -163 -2 -3 -17 3 -32 13 -56 35 -262 190 -263 197 0 3 24 -7 53 -23
28 -15 59 -26 67 -24z m392 -320 c6 -5 5 1 -2 13 -24 48 -3 28 57 -52 70 -95
112 -180 119 -246 l5 -45 -21 50 c-11 28 -35 66 -53 85 -60 65 -178 263 -177
298 0 4 14 -15 31 -43 17 -27 36 -54 41 -60z m236 -210 c-3 -3 -9 2 -12 12 -6
14 -5 15 5 6 7 -7 10 -15 7 -18z m-9 -35 c11 -24 11 -24 -3 -6 -9 11 -16 24
-16 30 0 12 5 7 19 -24z"/>
<path d="M1410 3540 c0 -6 7 -10 15 -10 8 0 15 2 15 4 0 2 -7 6 -15 10 -8 3
-15 1 -15 -4z"/>
<path d="M1478 3533 c18 -2 45 -2 60 0 15 2 0 4 -33 4 -33 0 -45 -2 -27 -4z"/>
<path d="M1280 3463 c30 -2 59 -8 65 -12 5 -5 27 -6 48 -4 70 9 37 19 -65 20
-57 0 -78 -2 -48 -4z"/>
<path d="M1448 3463 c7 -3 16 -2 19 1 4 3 -2 6 -13 5 -11 0 -14 -3 -6 -6z"/>
<path d="M1188 3453 c6 -2 18 -2 25 0 6 3 1 5 -13 5 -14 0 -19 -2 -12 -5z"/>
<path d="M1125 3440 c-13 -5 -14 -9 -5 -9 8 0 24 4 35 9 13 5 14 9 5 9 -8 0
-24 -4 -35 -9z"/>
<path d="M1308 3443 c6 -2 18 -2 25 0 6 3 1 5 -13 5 -14 0 -19 -2 -12 -5z"/>
<path d="M1160 3420 c-30 -11 -45 -19 -34 -19 12 -1 41 6 64 14 23 8 57 15 74
14 24 -1 19 -4 -24 -13 -30 -7 -104 -29 -165 -48 -115 -37 -187 -50 -218 -39
-13 5 -6 10 29 19 26 7 45 15 42 17 -5 5 -84 -18 -94 -27 -13 -13 44 -27 93
-22 26 2 100 22 163 43 63 22 131 42 150 46 64 12 74 16 59 26 -22 13 -78 9
-139 -11z"/>
<path d="M1022 3409 c-29 -12 -52 -23 -50 -24 2 -2 33 7 68 20 36 13 58 24 50
24 -8 0 -39 -9 -68 -20z"/>
<path d="M1333 3423 c9 -2 23 -2 30 0 6 3 -1 5 -18 5 -16 0 -22 -2 -12 -5z"/>
<path d="M1571 3404 c-139 -31 -202 -65 -354 -186 -12 -10 -17 -18 -12 -18 6
0 33 20 60 44 62 55 181 120 258 139 31 8 57 13 57 11 0 -7 -58 -33 -64 -29
-3 3 -4 2 -1 -2 3 -3 -1 -13 -8 -22 -7 -9 0 -7 18 6 17 11 61 32 99 45 38 14
65 27 60 30 -5 3 -56 -5 -113 -18z"/>
<path d="M1478 3413 c7 -3 16 -2 19 1 4 3 -2 6 -13 5 -11 0 -14 -3 -6 -6z"/>
<path d="M1370 3390 c-9 -6 -10 -10 -3 -10 6 0 15 5 18 10 8 12 4 12 -15 0z"/>
<path d="M1222 3342 c-51 -20 -104 -46 -116 -57 -13 -12 -28 -19 -33 -18 -10
4 -193 -113 -193 -123 0 -6 43 17 50 26 9 13 119 80 131 80 6 0 -10 -16 -37
-36 -27 -20 -74 -66 -104 -102 -30 -35 -66 -77 -80 -92 -50 -55 -65 -73 -53
-66 7 4 58 59 114 122 100 114 188 185 231 188 13 1 22 7 21 14 -2 7 4 9 14 5
12 -5 14 -3 8 8 -4 8 -5 11 0 7 4 -4 17 -2 29 4 11 5 -4 -16 -34 -48 -38 -41
-31 -36 25 18 44 42 96 84 115 92 72 31 1 13 -88 -22z"/>
<path d="M1435 3330 c-3 -6 1 -7 9 -4 18 7 21 14 7 14 -6 0 -13 -4 -16 -10z"/>
<path d="M1469 3313 c-13 -16 -12 -17 4 -4 9 7 17 15 17 17 0 8 -8 3 -21 -13z"/>
<path d="M1407 3271 c-21 -16 -51 -34 -68 -41 -16 -7 -28 -15 -25 -17 6 -6 77
32 111 61 41 34 29 32 -18 -3z"/>
<path d="M890 3244 c-170 -51 -250 -92 -419 -217 -102 -75 -107 -96 -17 -70
82 24 180 84 271 166 11 10 63 39 115 65 52 26 97 50 100 53 3 3 19 11 35 17
58 20 -1 11 -85 -14z m27 -10 c-3 -3 -12 -4 -19 -1 -8 3 -5 6 6 6 11 1 17 -2
13 -5z m-57 -19 c0 -3 -26 -18 -57 -34 -32 -16 -87 -52 -123 -81 -36 -29 -84
-63 -108 -77 -55 -33 -142 -65 -142 -54 0 12 108 97 182 144 85 54 248 121
248 102z"/>
<path d="M705 3150 c-11 -5 -33 -20 -50 -35 -27 -23 -25 -23 23 6 59 35 72 48
27 29z"/>
<path d="M1099 3233 l-24 -28 28 24 c25 23 32 31 24 31 -2 0 -14 -12 -28 -27z"/>
<path d="M1180 3188 c0 -10 61 -10 77 0 6 4 -9 7 -33 7 -24 0 -44 -3 -44 -7z"/>
<path d="M1030 3170 c-6 -11 -8 -20 -6 -20 3 0 10 9 16 20 6 11 8 20 6 20 -3
0 -10 -9 -16 -20z"/>
<path d="M1005 3084 c-109 -105 -179 -152 -237 -159 -41 -5 -48 -15 -12 -15
58 0 135 50 254 167 63 62 113 112 110 112 -3 1 -54 -47 -115 -105z"/>
<path d="M836 3119 c-15 -11 -32 -22 -39 -23 -31 -6 -88 -52 -152 -122 -99
-108 -95 -117 5 -11 45 48 86 87 91 87 5 0 -27 -36 -71 -81 -44 -44 -77 -86
-74 -91 4 -7 17 1 33 18 14 17 23 25 19 19 -4 -7 -2 -12 5 -12 8 0 26 24 42
54 17 33 51 73 89 105 33 28 68 58 76 65 23 21 5 15 -24 -8z m-46 -32 c0 -2
-10 -12 -22 -23 l-23 -19 19 23 c18 21 26 27 26 19z"/>
<path d="M646 2875 c-9 -26 -7 -32 5 -12 6 10 9 21 6 23 -2 3 -7 -2 -11 -11z"/>
<path d="M418 2768 c-113 -112 -171 -193 -267 -373 -52 -96 -9 -34 61 88 35
61 83 131 108 157 25 25 62 66 84 90 l38 45 -25 -45 c-14 -25 -59 -103 -99
-174 -76 -135 -175 -253 -202 -243 -8 3 -22 -4 -33 -15 -18 -20 -18 -21 7 -13
72 22 140 98 231 259 92 163 131 221 198 298 68 78 10 35 -101 -74z"/>
<path d="M545 2860 c-9 -10 -14 -23 -11 -29 4 -5 1 -13 -5 -17 -8 -4 -9 -3 -5
4 4 7 5 12 3 12 -6 0 -78 -106 -106 -155 -21 -36 -21 -38 -2 -15 29 36 26 18
-9 -44 -19 -33 -28 -61 -24 -72 4 -14 3 -15 -4 -6 -7 11 -11 10 -16 -4 -3 -9
-4 -19 -1 -22 3 -3 5 1 5 8 0 7 2 11 5 8 3 -3 -1 -23 -9 -44 -20 -53 -33 -108
-41 -174 -8 -62 0 -66 9 -5 12 76 29 145 37 145 4 0 6 -9 4 -20 -2 -11 0 -20
5 -20 5 0 8 15 6 33 -7 73 53 221 141 345 62 87 66 81 14 -18 -31 -58 -102
-260 -96 -271 3 -4 -3 -13 -12 -19 -15 -9 -14 -10 6 -4 13 3 34 18 47 33 23
26 82 138 104 196 20 53 -6 12 -33 -53 -30 -71 -83 -152 -99 -152 -6 0 -7 8
-3 18 4 9 20 58 37 107 16 50 48 123 69 164 22 41 37 76 34 79 -12 13 -35 9
-50 -8z m-40 -87 c-10 -14 -27 -41 -38 -60 -11 -19 -22 -31 -25 -29 -6 6 65
116 74 116 4 0 -2 -12 -11 -27z"/>
<path d="M626 2823 c-6 -14 -5 -15 5 -6 7 7 10 15 7 18 -3 3 -9 -2 -12 -12z"/>
<path d="M339 2526 c-34 -78 -98 -299 -105 -366 -4 -36 -11 -75 -15 -87 -6
-17 -5 -23 6 -23 9 0 16 10 16 25 1 14 2 28 3 33 1 4 5 29 10 55 4 27 29 114
56 194 26 81 46 152 43 159 -2 7 0 22 7 33 6 12 8 21 5 21 -3 0 -15 -20 -26
-44z m-8 -73 c-12 -20 -14 -14 -5 12 4 9 9 14 11 11 3 -2 0 -13 -6 -23z m-31
-98 c-16 -47 -23 -40 -8 8 6 20 13 35 16 33 2 -3 -1 -21 -8 -41z"/>
<path d="M3341 2460 c14 -31 19 -36 19 -24 0 6 -7 19 -16 30 -14 18 -14 18 -3
-6z"/>
<path d="M378 2339 c-1 -34 0 -63 5 -66 4 -2 7 25 7 61 0 36 -2 66 -4 66 -2 0
-6 -27 -8 -61z"/>
<path d="M3372 2378 c3 -7 15 -43 28 -79 12 -36 31 -77 42 -90 14 -18 13 -13
-6 26 -13 28 -31 74 -41 103 -9 28 -19 52 -22 52 -3 0 -3 -6 -1 -12z"/>
<path d="M3470 2311 c0 -5 5 -13 10 -16 6 -3 10 -2 10 4 0 5 -4 13 -10 16 -5
3 -10 2 -10 -4z"/>
<path d="M3496 2245 c3 -16 12 -53 20 -82 24 -88 19 -87 -44 4 -7 10 -5 3 4
-16 17 -36 62 -86 70 -78 3 2 -5 40 -17 83 -25 91 -42 136 -33 89z"/>
<path d="M373 2217 c-2 -22 -1 -38 1 -36 8 8 14 69 8 73 -4 2 -8 -14 -9 -37z"/>
<path d="M323 2210 c0 -25 2 -35 4 -22 2 12 2 32 0 45 -2 12 -4 2 -4 -23z"/>
<path d="M1200 2203 c-14 -3 -15 -51 -15 -381 l0 -377 200 0 c184 0 204 2 257
23 213 86 307 336 200 535 -58 108 -151 173 -274 193 -45 7 -341 12 -368 7z
m377 -112 c23 -6 61 -26 85 -44 82 -63 113 -136 106 -248 -6 -83 -42 -151
-104 -198 -60 -46 -126 -61 -259 -61 l-110 0 1 273 c1 149 2 277 3 283 1 15
221 11 278 -5z"/>
<path d="M2027 2195 c-2 -5 -3 -176 -3 -380 l1 -370 55 -3 55 -3 -1 163 c0 90
3 170 7 178 6 13 31 16 148 15 108 -1 141 2 142 12 9 91 14 89 -150 88 -87 0
-142 3 -144 10 -3 9 -1 180 2 196 1 3 66 5 146 5 122 -1 145 1 146 14 4 60 4
80 -1 81 -3 1 -94 2 -202 3 -127 1 -199 -2 -201 -9z"/>
<path d="M350 2131 c-14 -44 -38 -71 -27 -32 9 35 -5 16 -19 -26 -26 -75 11
-47 47 36 11 24 18 49 16 54 -1 5 -9 -9 -17 -32z"/>
<path d="M315 2150 c-3 -5 -1 -10 4 -10 6 0 11 5 11 10 0 6 -2 10 -4 10 -3 0
-8 -4 -11 -10z"/>
<path d="M3323 2075 c0 -22 2 -30 4 -17 2 12 2 30 0 40 -3 9 -5 -1 -4 -23z"/>
<path d="M3307 1983 c-2 -10 -8 -27 -13 -37 -5 -13 -4 -17 3 -13 14 9 35 67
24 67 -5 0 -11 -8 -14 -17z"/>
<path d="M191 1771 c-26 -26 -27 -55 -1 -81 31 -31 56 -25 79 18 9 18 9 28 -1
50 -16 34 -50 40 -77 13z m65 -13 c10 -30 6 -50 -13 -65 -38 -29 -77 33 -42
68 25 25 46 24 55 -3z"/>
<path d="M3323 1673 c-13 -37 -2 -76 23 -87 18 -8 21 -16 17 -55 -7 -72 -42
-250 -64 -319 -10 -35 -16 -68 -13 -73 3 -5 1 -8 -5 -7 -5 2 -16 -6 -24 -17
-9 -12 -6 9 10 54 13 40 26 96 29 125 4 44 1 39 -20 -39 -13 -49 -32 -108 -40
-130 l-16 -40 5 42 c3 24 7 75 10 115 11 147 16 179 36 233 11 30 19 61 17 67
-9 27 -58 -153 -58 -214 -1 -59 -12 -163 -25 -233 -8 -38 -47 -125 -57 -125
-5 0 -8 -7 -8 -16 0 -23 17 -8 36 32 9 19 18 33 21 31 2 -3 -5 -20 -16 -38
-11 -19 -34 -59 -50 -89 -36 -69 -138 -185 -236 -270 -27 -23 -26 -21 6 20 20
25 68 85 108 134 39 48 84 111 98 140 50 97 67 204 39 242 -14 18 -15 16 -14
-22 1 -62 -29 -117 -136 -251 -82 -104 -176 -259 -176 -292 0 -30 -153 -144
-277 -205 -94 -47 -241 -102 -249 -93 -6 5 60 44 121 71 212 96 288 155 325
256 26 71 26 97 0 45 -15 -31 -36 -50 -88 -80 -143 -82 -239 -150 -303 -214
-54 -54 -84 -74 -152 -104 -47 -20 -97 -37 -111 -37 -20 0 -24 -4 -19 -17 6
-15 5 -16 -9 -3 -15 14 -14 16 5 23 73 29 112 52 152 88 25 23 45 46 45 51 0
6 -20 -10 -44 -34 -24 -25 -64 -54 -89 -66 -77 -36 -277 -82 -277 -63 0 4 27
13 61 20 34 7 59 15 56 17 -3 3 -22 1 -44 -5 l-38 -10 25 19 c14 10 50 29 80
41 73 28 252 91 268 93 16 3 43 41 35 49 -3 3 -13 -3 -22 -13 -9 -11 -86 -46
-172 -79 -86 -32 -185 -74 -220 -94 -90 -49 -104 -52 -128 -26 -39 42 -87 29
-126 -35 -9 -15 -16 -15 -90 0 -106 21 -138 26 -92 13 48 -14 48 -29 0 -18
-40 8 -58 5 -25 -5 29 -10 155 -24 175 -20 34 6 16 -17 -30 -38 -61 -29 -60
-28 -45 -37 17 -10 -48 -40 -104 -48 -24 -3 -44 -9 -44 -14 0 -25 128 23 202
77 50 35 50 35 65 15 19 -29 76 -28 104 0 19 19 25 20 42 10 36 -23 106 -29
192 -17 44 6 222 8 272 3 40 -4 55 -16 22 -18 -70 -5 -172 -21 -189 -30 -16
-8 21 -5 125 10 33 4 65 7 70 5 6 -2 25 -5 43 -8 28 -4 31 -2 21 10 -39 47
-123 56 -404 44 -76 -4 -155 11 -155 29 0 4 21 8 47 10 26 1 99 11 162 22 64
11 129 22 144 25 15 2 33 1 40 -3 17 -10 42 -12 197 -13 157 -1 202 9 350 75
56 25 121 48 146 52 24 3 47 9 49 14 9 14 -65 31 -111 24 -83 -11 -235 -46
-277 -63 -16 -7 -32 -12 -36 -12 -4 0 -36 -11 -70 -25 -34 -14 -81 -28 -104
-31 -23 -2 -60 -7 -82 -9 -54 -7 -31 5 85 45 130 44 182 68 174 82 -5 8 -1 9
11 4 12 -4 49 11 114 48 84 48 105 55 166 60 114 10 195 34 268 80 73 46 260
223 246 232 -26 16 -177 -54 -241 -111 -18 -16 -55 -48 -83 -70 -78 -64 -82
-68 -65 -59 8 4 59 43 112 86 95 76 169 121 229 138 28 8 26 5 -27 -56 -90
-102 -209 -184 -305 -209 -71 -19 -83 -18 -34 5 38 17 38 18 10 15 -17 -2 -48
-7 -70 -13 -35 -8 -85 -12 -85 -6 0 1 33 26 73 54 68 49 61 36 -14 -22 -18
-15 -29 -27 -22 -28 16 0 124 90 118 100 -6 10 20 32 28 24 8 -8 94 81 180
187 38 46 92 100 120 121 29 20 51 41 49 48 -1 6 2 9 7 6 16 -10 105 90 144
164 21 40 37 74 34 76 -2 2 -19 -26 -38 -62 -37 -73 -134 -186 -126 -147 4 17
-8 9 -45 -30 -28 -29 -46 -45 -40 -37 35 51 95 192 125 296 28 94 37 146 42
234 4 63 11 123 17 133 13 25 2 83 -18 91 -29 11 -42 6 -51 -21z m49 -10 c23
-20 23 -42 1 -59 -24 -16 -43 0 -43 36 0 42 13 50 42 23z m-162 -620 c-11 -17
-11 -17 -6 0 3 10 6 24 7 30 0 9 2 9 5 0 3 -7 0 -20 -6 -30z m-76 -10 c-8 -49
-67 -170 -103 -208 -15 -16 -44 -52 -66 -80 -53 -69 -60 -75 -40 -37 9 19 14
36 11 39 -2 3 -14 -13 -25 -34 -11 -22 -27 -46 -37 -54 -12 -10 -9 2 11 41 30
61 119 183 178 245 20 22 45 59 53 83 20 52 26 53 18 5z m-428 -450 c-27 -53
-113 -117 -245 -182 -65 -32 -99 -42 -46 -14 25 13 27 17 12 22 -13 5 -6 14
35 41 70 46 252 160 256 160 1 0 -4 -12 -12 -27z m129 -251 c-18 -15 -172 -81
-250 -107 -73 -23 -197 -36 -212 -21 -3 3 7 6 23 6 16 0 52 7 79 15 48 14 48
14 10 10 -22 -3 -53 -7 -70 -10 -83 -14 94 49 235 85 78 19 102 24 160 28 21
2 31 -1 25 -6z m-436 -26 c-24 -24 -296 -105 -283 -85 3 5 13 9 22 9 9 1 69
18 132 39 113 38 138 45 129 37z m-661 -103 c29 -40 -2 -103 -53 -103 -50 0
-63 83 -19 117 20 15 55 8 72 -14z m309 1 c-3 -3 -12 -4 -19 -1 -8 3 -5 6 6 6
11 1 17 -2 13 -5z m-37 -8 c0 -2 -13 -6 -29 -8 -17 -2 -28 -1 -25 4 5 8 54 12
54 4z m-77 -13 c-7 -2 -19 -2 -25 0 -7 3 -2 5 12 5 14 0 19 -2 13 -5z m-95
-10 c-16 -2 -40 -2 -55 0 -16 2 -3 4 27 4 30 0 43 -2 28 -4z"/>
<path d="M2480 438 c-25 -12 -39 -23 -33 -25 12 -4 83 33 83 43 0 5 4 6 -50
-18z"/>
<path d="M296 1653 c4 -10 10 -38 13 -63 l5 -45 6 40 6 40 17 -55 c9 -30 17
-74 19 -97 1 -24 5 -43 9 -43 19 0 -26 195 -53 228 -16 18 -31 15 -22 -5z"/>
<path d="M222 1653 c-6 -3 -9 -9 -6 -14 3 -5 8 -44 11 -87 2 -42 8 -78 13 -80
5 -2 7 -9 4 -17 -6 -16 47 -234 70 -290 13 -31 19 -36 26 -25 5 8 10 20 10 25
0 6 -4 4 -9 -3 -6 -10 -11 -6 -19 17 -7 18 -7 29 -2 26 6 -4 10 -1 10 4 0 6
-4 11 -10 11 -5 0 -6 7 -3 17 4 11 3 14 -6 9 -9 -6 -10 0 -6 21 5 22 4 25 -5
13 -9 -12 -11 -10 -6 11 3 14 -6 67 -19 118 -14 51 -28 127 -31 169 -4 42 -7
78 -8 78 0 1 -7 -1 -14 -3z m35 -225 c-3 -8 -6 -5 -6 6 -1 11 2 17 5 13 3 -3
4 -12 1 -19z m10 -40 c-3 -8 -6 -5 -6 6 -1 11 2 17 5 13 3 -3 4 -12 1 -19z
m21 -78 c0 -9 -3 -7 -8 5 -5 11 -8 29 -8 40 0 16 2 15 8 -5 4 -14 8 -32 8 -40z"/>
<path d="M3294 1566 c6 -20 14 -36 18 -36 11 0 0 43 -16 58 -12 12 -12 9 -2
-22z"/>
<path d="M3313 1485 c0 -22 2 -30 4 -17 2 12 2 30 0 40 -3 9 -5 -1 -4 -23z"/>
<path d="M311 1474 c0 -11 3 -14 6 -6 3 7 2 16 -1 19 -3 4 -6 -2 -5 -13z"/>
<path d="M3304 1426 c-3 -8 -4 -29 -2 -48 3 -29 4 -27 8 15 5 48 3 58 -6 33z"/>
<path d="M3505 1422 c-37 -30 -146 -210 -145 -239 0 -4 20 29 43 74 45 84 96
158 104 150 2 -3 -3 -30 -12 -62 -9 -31 -15 -59 -12 -61 2 -3 10 16 16 42 7
26 19 60 26 75 18 33 8 43 -20 21z"/>
<path d="M60 1423 c0 -5 18 -16 40 -26 22 -10 56 -38 75 -61 31 -38 231 -416
220 -416 -3 0 -27 32 -55 72 -27 39 -50 67 -50 62 0 -5 -11 8 -25 29 -38 55
-39 45 -2 -18 34 -57 222 -266 236 -262 4 1 30 -25 57 -59 80 -99 192 -215
170 -176 -12 20 4 14 39 -15 109 -94 248 -191 335 -233 88 -43 178 -80 194
-79 6 0 -11 9 -39 20 -27 11 -68 37 -89 57 -21 20 -35 31 -31 23 5 -9 0 -8
-17 3 -14 9 -28 13 -33 9 -4 -5 -5 -3 -2 3 3 6 -15 28 -41 49 -30 24 -38 29
-23 12 45 -49 5 -28 -62 34 -37 33 -93 97 -126 142 -32 45 -72 93 -88 107
l-28 25 26 -30 c14 -17 54 -67 88 -113 34 -45 83 -103 109 -127 26 -25 43 -45
39 -45 -8 0 -97 58 -107 70 -3 3 -25 21 -50 40 -129 100 -188 181 -220 299 -6
24 -13 41 -15 39 -3 -2 0 -19 5 -38 5 -18 7 -37 4 -41 -3 -5 0 -9 6 -9 6 0 8
-5 4 -11 -4 -7 -13 0 -25 17 -10 15 -16 31 -13 35 7 12 -15 61 -25 55 -16 -11
-57 94 -96 247 -10 37 -21 70 -26 72 -4 3 -2 -16 6 -42 9 -26 18 -59 21 -73
24 -105 89 -254 105 -244 7 4 6 -2 -1 -16 -10 -20 -8 -27 22 -59 83 -90 93
-102 75 -96 -9 4 -17 10 -17 14 0 3 -21 29 -46 56 -47 53 -75 93 -55 81 18
-11 13 3 -17 47 -47 69 -77 128 -113 217 -33 83 -34 89 -33 220 1 74 -1 117
-2 95 -15 -169 -28 -182 -40 -39 -4 43 -9 81 -11 84 -10 9 5 -155 16 -183 6
-16 9 -40 6 -55 -4 -23 -4 -24 4 -7 10 21 12 17 16 -37 1 -14 19 -61 39 -104
43 -91 41 -112 -3 -28 -16 33 -30 55 -31 50 0 -12 77 -154 100 -183 10 -12 20
-19 24 -15 4 3 4 -1 1 -10 -4 -9 -2 -19 4 -23 6 -3 11 -11 11 -16 0 -18 -56
55 -97 126 -22 39 -67 124 -100 190 -93 185 -128 235 -189 271 -43 25 -54 29
-54 17z m395 -495 l16 -33 -20 25 c-20 24 -26 40 -16 40 2 0 12 -15 20 -32z
m265 -342 c0 -4 -13 6 -30 21 -16 14 -30 30 -30 35 0 5 14 -4 30 -20 17 -17
30 -33 30 -36z m296 -198 l19 -21 -27 18 c-29 18 -34 25 -20 25 5 0 17 -10 28
-22z"/>
<path d="M111 1367 c-1 -12 111 -238 116 -233 2 2 -23 57 -56 122 -33 66 -60
115 -60 111z"/>
<path d="M3466 1255 c-9 -26 -7 -32 5 -12 6 10 9 21 6 23 -2 3 -7 -2 -11 -11z"/>
<path d="M422 1199 c36 -27 63 -72 99 -166 16 -43 27 -64 24 -48 -20 96 -101
236 -137 235 -7 0 -1 -10 14 -21z"/>
<path d="M3350 1168 c0 -3 -7 -22 -15 -42 -8 -20 -13 -36 -10 -36 8 0 36 73
30 78 -3 3 -5 3 -5 0z"/>
<path d="M690 751 c8 -6 17 -8 22 -5 4 3 29 -6 55 -20 43 -21 92 -67 233 -216
l42 -45 -43 55 c-71 89 -185 196 -232 219 -43 21 -108 31 -77 12z"/>
<path d="M336 741 c-6 -8 130 -130 214 -193 71 -52 342 -170 356 -155 3 3 -4
8 -15 12 -12 3 -21 10 -21 15 0 4 -18 15 -41 24 -53 21 -140 82 -204 141 -103
96 -270 187 -289 156z m102 -40 c58 -29 144 -92 192 -139 14 -14 59 -47 100
-74 87 -58 93 -63 60 -50 -158 61 -306 158 -399 265 -31 34 -24 34 47 -2z"/>
<path d="M585 565 c43 -37 75 -58 80 -53 3 3 -21 22 -52 42 -40 26 -49 29 -28
11z"/>
<path d="M2905 600 c-3 -5 -1 -10 4 -10 6 0 11 5 11 10 0 6 -2 10 -4 10 -3 0
-8 -4 -11 -10z"/>
<path d="M940 507 c0 -2 15 -16 33 -33 l32 -29 -29 33 c-28 30 -36 37 -36 29z"/>
<path d="M1115 459 c-11 -4 -15 -8 -9 -8 7 -1 36 -24 65 -52 56 -52 193 -149
213 -149 6 0 -23 21 -64 46 -41 26 -101 71 -133 101 -62 59 -61 60 23 39 l25
-7 -25 12 c-46 21 -75 26 -95 18z"/>
<path d="M1069 422 c17 -22 38 -45 48 -53 10 -8 -2 10 -26 39 -51 60 -68 71
-22 14z"/>
<path d="M1240 427 c3 -3 34 -26 70 -52 46 -33 54 -36 26 -12 -33 29 -111 82
-96 64z"/>
<path d="M792 345 c4 -4 24 -9 45 -12 35 -5 149 -44 268 -92 58 -23 47 -28
-15 -6 -54 19 -76 19 -32 0 49 -21 103 -35 97 -24 -4 5 4 9 17 9 18 0 20 -2 8
-10 -13 -9 -13 -10 0 -9 8 0 23 4 34 8 14 5 5 10 -34 19 -28 7 -84 26 -123 43
-39 17 -96 40 -126 51 -57 20 -152 35 -139 23z"/>
<path d="M758 333 c7 -3 16 -2 19 1 4 3 -2 6 -13 5 -11 0 -14 -3 -6 -6z"/>
<path d="M1403 303 c16 -17 29 -35 28 -40 0 -4 5 -8 12 -9 6 0 20 -4 30 -9 14
-6 15 -10 6 -16 -13 -8 33 -23 101 -34 26 -4 15 4 -45 33 -44 21 -98 54 -120
72 -40 34 -40 34 -12 3z"/>
<path d="M771 316 c2 -2 18 -6 34 -10 22 -5 26 -4 15 4 -14 9 -59 15 -49 6z"/>
<path d="M1341 306 c2 -2 15 -9 29 -15 24 -11 24 -11 6 3 -16 13 -49 24 -35
12z"/>
<path d="M860 286 c0 -2 7 -7 16 -10 8 -3 12 -2 9 4 -6 10 -25 14 -25 6z"/>
<path d="M949 245 c29 -14 55 -24 58 -22 2 3 -15 12 -39 22 -69 28 -78 27 -19
0z"/>
<path d="M1330 226 c0 -2 9 -6 20 -9 11 -3 18 -1 14 4 -5 9 -34 13 -34 5z"/>
<path d="M1085 195 c39 -13 90 -24 115 -23 43 0 42 1 -15 9 -33 4 -80 15 -104
23 -24 9 -49 16 -55 15 -6 -1 21 -12 59 -24z"/>
<path d="M1230 200 c-17 -6 -19 -8 -7 -9 10 -1 20 -7 22 -13 4 -9 29 -14 73
-15 l67 -1 -68 16 c-38 9 -65 20 -61 25 8 8 8 8 -26 -3z"/>
<path d="M1270 89 c-57 -10 -122 -37 -127 -54 -2 -6 12 -11 29 -12 18 -1 69
-4 113 -7 l80 -5 -70 9 c-84 10 -126 17 -132 24 -8 8 98 36 134 36 18 0 33 5
33 10 0 6 -1 9 -2 9 -2 -1 -28 -5 -58 -10z"/>
<path d="M1346 92 c-3 -5 1 -9 9 -9 8 0 12 4 9 9 -3 4 -7 8 -9 8 -2 0 -6 -4
-9 -8z"/>
<path d="M1415 90 c-3 -5 -1 -10 4 -10 6 0 11 5 11 10 0 6 -2 10 -4 10 -3 0
-8 -4 -11 -10z"/>
<path d="M1835 92 c18 -17 107 -42 144 -41 28 1 22 4 -29 14 -36 7 -78 18 -95
25 -16 6 -25 7 -20 2z"/>
<path d="M1946 92 c-3 -5 1 -9 9 -9 8 0 12 4 9 9 -3 4 -7 8 -9 8 -2 0 -6 -4
-9 -8z"/>
<path d="M1448 83 c7 -3 16 -2 19 1 4 3 -2 6 -13 5 -11 0 -14 -3 -6 -6z"/>
<path d="M2028 53 c6 -2 18 -2 25 0 6 3 1 5 -13 5 -14 0 -19 -2 -12 -5z"/>
</g>
</svg>
